<svg width="100%" height="100%" style="overflow:visible;" preserveAspectRatio="none" viewBox="0 0 142 54" fill="none" xmlns="http://www.w3.org/2000/svg"><g clip-path="url(#clip0_1_888)"><path d="M8.48904 16.3166C8.48904 16.3166 4.50469 20.041 4.50469 26.256C4.50469 32.1948 12.1928 35.5537 12.1928 39.0252C12.1955 39.5577 11.9995 40.0721 11.6432 40.4678L11.6008 40.5146C11.5778 40.5417 11.5529 40.5671 11.5263 40.5906C11.5102 40.6038 11.4956 40.6213 11.4751 40.6389C9.46686 42.4718 3.74903 41.3887 0.914967 31.1C0.914967 31.1 -5.38751 47.5847 15.0853 54.0044C15.0853 54.0044 17.5452 53.3042 19.5432 50.7887C20.9113 49.0522 22.0703 46.4812 22.0703 42.6808C22.0703 32.4827 11.345 30.3692 8.48904 16.3166Z" fill="url(#paint0_linear_1_888)"/><path d="M46.5772 43.495V19.6829H59.8662V22.9687H50.449V28.9046H59.8662V32.3029H50.449V43.4935L46.5772 43.495Z" fill="black"/><path d="M63.4603 21.4062C63.4577 21.1171 63.515 20.8307 63.6284 20.5648C63.7419 20.2989 63.909 20.0594 64.1194 19.8612C64.3233 19.6523 64.5674 19.487 64.8369 19.3752C65.1065 19.2634 65.3959 19.2075 65.6878 19.2107C65.9775 19.2039 66.2657 19.256 66.5347 19.3638C66.8038 19.4716 67.0482 19.6328 67.2532 19.8378C67.4581 20.0427 67.6194 20.2872 67.7271 20.5562C67.8349 20.8253 67.887 21.1135 67.8802 21.4033C67.8873 21.6968 67.8347 21.9887 67.7257 22.2613C67.6166 22.5339 67.4534 22.7815 67.2458 22.9892C67.0438 23.1984 66.8008 23.3635 66.5319 23.4742C66.263 23.5849 65.9741 23.6387 65.6834 23.6323C65.0942 23.6262 64.531 23.3894 64.1145 22.9726C63.698 22.5559 63.4616 21.9924 63.4559 21.4033L63.4603 21.4062ZM63.9324 43.495V28.0758H67.4607V43.495H63.9324Z" fill="black"/><path d="M76.0331 30.5314C76.4112 29.5131 76.9125 28.7594 77.5371 28.2702C78.1617 27.781 78.9344 27.5374 79.8552 27.5394C80.3512 27.5386 80.8455 27.5985 81.327 27.7177C81.8182 27.8404 82.2949 28.0148 82.7492 28.238L81.4805 31.2315C81.1823 31.0166 80.8497 30.854 80.4969 30.7506C80.1125 30.6466 79.7154 30.5974 79.3173 30.6045C78.148 30.6045 77.3081 31.0732 76.7975 32.0106C76.2869 32.948 76.0321 34.5232 76.0331 36.7362V43.5023H72.5033V28.0436H76.0331V30.5314Z" fill="black"/><path d="M99.6161 36.305H87.2875C87.3732 37.7482 87.8015 38.8732 88.5722 39.68C89.343 40.4868 90.3661 40.8908 91.6416 40.8917C92.7797 40.8917 93.7283 40.6535 94.4874 40.177C95.2464 39.7005 95.908 38.9306 96.4722 37.8675L99.4481 39.5265C98.5818 41.0769 97.51 42.2316 96.2325 42.9907C94.9551 43.7498 93.4535 44.1293 91.7278 44.1293C89.2548 44.1293 87.2865 43.3756 85.8229 41.8681C84.3594 40.3607 83.6285 38.3494 83.6305 35.8343C83.6305 33.4158 84.3871 31.4284 85.9004 29.8722C87.4136 28.316 89.3571 27.5364 91.7307 27.5335C94.2126 27.5335 96.1477 28.2434 97.5363 29.6632C98.9248 31.0829 99.6191 33.0728 99.6191 35.6326L99.6161 36.305ZM95.9621 33.9312C95.8199 32.8252 95.397 31.9819 94.6934 31.4011C93.9899 30.8203 93.0248 30.528 91.798 30.5241C90.6375 30.5241 89.705 30.8062 89.0005 31.3704C88.296 31.9346 87.8029 32.7858 87.5213 33.9239L95.9621 33.9312Z" fill="black"/><path d="M103.389 39.1728C103.713 39.5813 104.103 39.933 104.543 40.2135C104.896 40.4266 105.3 40.5394 105.713 40.5395C106.473 40.5395 107.009 40.29 107.32 39.7911C107.632 39.2922 107.787 38.3664 107.784 37.0139V19.6829H111.622V38.2578C111.622 40.273 111.177 41.7556 110.287 42.7057C109.398 43.6558 108.01 44.1303 106.125 44.1293C105.151 44.1433 104.186 43.9374 103.302 43.5271C102.39 43.0705 101.58 42.4341 100.92 41.6562L103.389 39.1728Z" fill="black"/><path d="M131.266 36.305H118.937C119.025 37.7482 119.453 38.8732 120.222 39.68C120.991 40.4868 122.014 40.8908 123.291 40.8917C124.43 40.8917 125.38 40.6535 126.139 40.177C126.898 39.7005 127.559 38.9306 128.122 37.8675L131.107 39.5265C130.238 41.0769 129.167 42.2316 127.891 42.9907C126.616 43.7498 125.114 44.1293 123.386 44.1293C120.915 44.1293 118.947 43.3756 117.483 41.8681C116.018 40.3607 115.288 38.3494 115.29 35.8343C115.29 33.4158 116.047 31.4284 117.559 29.8722C119.071 28.316 121.015 27.5364 123.389 27.5335C125.873 27.5335 127.809 28.2434 129.196 29.6632C130.584 31.0829 131.278 33.0728 131.278 35.6326L131.266 36.305ZM127.612 33.9312C127.472 32.8252 127.049 31.9819 126.343 31.4011C125.638 30.8203 124.673 30.528 123.449 30.5241C122.289 30.5241 121.356 30.8062 120.652 31.3704C119.947 31.9346 119.452 32.7882 119.165 33.9312H127.612Z" fill="black"/><path d="M135.771 43.495V31.1658H133.071V28.0758H135.771V22.2291H139.3V28.0758H142V31.1658H139.3V43.495H135.771Z" fill="black"/><path d="M18.979 0C18.8183 0.124242 11.3465 5.95047 11.3465 14.4194C11.3465 30.0739 31.9362 33.158 22.2969 51.7417C22.2969 51.7417 26.9419 49.8986 30.0434 45.1847C31.6059 42.8182 32.7796 39.7268 32.7796 35.7788C32.7825 23.9831 13.7392 18.1247 18.979 0Z" fill="url(#paint1_linear_1_888)"/><path d="M30.0464 45.1861C33.7311 34.6621 28.7455 30.0213 23.4487 23.8852C11.6476 10.2171 18.8548 0.175401 18.9776 0C13.7392 18.1247 32.7825 23.9831 32.7825 35.7803C32.7825 39.7282 31.6088 42.827 30.0464 45.1861Z" fill="#ED9F5C"/><path d="M19.5432 50.7799C21.3308 43.1018 20.3822 37.9552 13.5901 30.8164C6.79797 23.6776 8.48906 16.3166 8.48906 16.3166C11.345 30.3692 22.0704 32.4827 22.0704 42.6808C22.0704 46.4812 20.9113 49.0522 19.5432 50.7799Z" fill="#ED9F5C"/><path d="M11.4751 40.6345C10.7604 41.3317 7.82984 43.8019 4.58214 41.0423C0.843335 37.8646 0.914953 31.0956 0.914953 31.0956C3.74902 41.3843 9.46685 42.4674 11.4751 40.6345Z" fill="#ED9F5C"/></g><defs><linearGradient id="paint0_linear_1_888" x1="11.0322" y1="24.8572" x2="11.0322" y2="52.9374" gradientUnits="userSpaceOnUse"><stop stop-color="#E68934"/><stop offset="1" stop-color="#E47033"/></linearGradient><linearGradient id="paint1_linear_1_888" x1="3246.67" y1="8799.2" x2="3246.67" y2="18739.3" gradientUnits="userSpaceOnUse"><stop stop-color="#E68934"/><stop offset="1" stop-color="#E47033"/></linearGradient><clipPath id="clip0_1_888"><rect width="142" height="54" fill="white"/></clipPath></defs></svg>